<?xml version="1.0" standalone="no"?>
<!DOCTYPE svg PUBLIC "-//W3C//DTD SVG 1.1//EN" "http://www.w3.org/Graphics/SVG/1.1/DTD/svg11.dtd" >
<svg>
<metadata>
Created by FontForge 20120731 at Wed Oct 15 04:36:06 2014
 By Orthosie Webhosting
Copyrighted (c) 1981, 1997 by and the property of Linotype-Hell AG and/or its subsidiaries. All Rights Reserved. All Cyrillic characters designed by DoubleAlex. Helvetica is a registered Trademark of Linotype-Hell AG and/or its subsidiaries.
</metadata>
<defs>
<font id="HelveticaNeueCyrBlackItalic" horiz-adv-x="648" >
  <font-face 
    font-family="HelveticaNeueCyrBlackItalic"
    font-weight="900"
    font-style="italic"
    font-stretch="normal"
    units-per-em="1000"
    panose-1="2 0 9 3 5 0 0 9 0 4"
    ascent="800"
    descent="-200"
    x-height="516"
    cap-height="712"
    bbox="-140 -214 1190 911"
    underline-thickness="50"
    underline-position="-50"
    slope="-12"
    unicode-range="U+0020-E001"
  />
<missing-glyph horiz-adv-x="1000" 
 />
    <glyph glyph-name=".notdef" horiz-adv-x="1000" 
 />
    <glyph glyph-name=".null" horiz-adv-x="0" 
 />
    <glyph glyph-name="nonmarkingreturn" horiz-adv-x="333" 
 />
    <glyph glyph-name="space" unicode=" " horiz-adv-x="334" 
 />
    <glyph glyph-name="exclam" unicode="!" horiz-adv-x="334" 
d="M233 197l-41 -197h-199l42 197h198zM345 712l-33 -160l-119 -301h-94l7 297l35 164h204z" />
    <glyph glyph-name="quotedbl" unicode="&#x22;" horiz-adv-x="519" 
d="M106 396l49 296h145l-101 -296h-93zM289 396l69 296h145l-120 -296h-94z" />
    <glyph glyph-name="numbersign" unicode="#" horiz-adv-x="668" 
d="M540 395l-18 -95h79v-136h-105l-31 -164h-166l31 164h-66l-31 -164h-166l32 164h-77v136h104l18 95h-76v136h102l31 162h164l-31 -162h67l31 162h165l-31 -162h80v-136h-106zM308 395l-17 -95h66l17 95h-66z" />
    <glyph glyph-name="dollar" unicode="$" horiz-adv-x="668" 
d="M641 507q0 -4 -0.5 -10.5t-0.5 -12.5h-183v12q0 57 -60 66l-27 -125q49 -10 85 -22t73.5 -34t58 -57.5t20.5 -83.5q0 -79 -43.5 -137.5t-110.5 -86.5t-145 -28q-17 0 -32 1l-20 -90h-51l20 90q-103 5 -171 59.5t-68 155.5q0 14 1 26h201v-11q0 -67 68 -83l32 149
q-40 11 -65 19t-57.5 24.5t-51 35t-31.5 49t-13 68.5q0 59 26 103.5t69 69.5t93.5 37t105.5 12h12l18 84h51l-18 -85q105 -9 159.5 -58.5t54.5 -136.5zM347 567h-8q-36 0 -56.5 -16t-20.5 -44q0 -11 2.5 -19t11 -14.5t11.5 -8.5t18 -7.5t16 -6.5zM405 205q0 20 -11.5 33.5
t-22.5 18.5t-35 12l-30 -137q5 -1 11 -1q39 0 63.5 20.5t24.5 53.5z" />
    <glyph glyph-name="percent" unicode="%" horiz-adv-x="1000" 
d="M791 708l-483 -728h-115l483 728h115zM434 548q0 -93 -56.5 -159.5t-147.5 -66.5q-75 0 -118.5 42.5t-43.5 115.5q0 93 54.5 156.5t146.5 63.5q76 0 120.5 -38.5t44.5 -113.5zM266 612q-30 0 -42 -29q-9 -19 -19 -62.5t-10 -64.5q0 -22 10 -34.5t27 -12.5t29 12t16 23
t10 30q18 69 18 98q0 40 -39 40zM925 211q0 -93 -56.5 -159.5t-147.5 -66.5q-75 0 -118.5 42.5t-43.5 115.5q0 93 54.5 156.5t146.5 63.5q76 0 120.5 -38.5t44.5 -113.5zM757 275q-30 0 -42 -29q-9 -19 -19 -62.5t-10 -64.5q0 -22 10 -34.5t27 -12.5t29 12t16 23t10 30
q18 69 18 98q0 40 -39 40z" />
    <glyph glyph-name="ampersand" unicode="&#x26;" horiz-adv-x="741" 
d="M691 347q-24 -104 -120 -200l94 -147h-213l-22 37q-69 -54 -172 -54q-105 0 -176 58t-71 161q0 151 188 219q-37 62 -37 114q0 81 61.5 134t155.5 53t151.5 -48.5t57.5 -126.5q0 -123 -152 -192l46 -70q19 21 38 62h171zM362 470q73 39 73 81q0 19 -14 32t-36 13
q-23 0 -38.5 -15.5t-15.5 -38.5q0 -24 31 -72zM282 289q-46 -20 -65 -39t-19 -46q0 -25 18.5 -42.5t44.5 -17.5q44 0 84 37z" />
    <glyph glyph-name="quotesingle" unicode="'" horiz-adv-x="296" 
d="M88 396l66 296h144l-122 -296h-88z" />
    <glyph glyph-name="parenleft" unicode="(" horiz-adv-x="315" 
d="M396 718q-97 -151 -148 -303t-51 -337q0 -138 24 -247h-167q-45 124 -45 283q0 170 47.5 309.5t158.5 294.5h181z" />
    <glyph glyph-name="parenright" unicode=")" horiz-adv-x="315" 
d="M230 718q44 -124 44 -282q0 -169 -47.5 -307.5t-158.5 -297.5h-181q199 291 199 645q0 123 -24 242h168z" />
    <glyph glyph-name="asterisk" unicode="*" horiz-adv-x="463" 
d="M342 712l-22 -146l130 31l24 -107l-132 -23l64 -111l-94 -54l-63 116l-95 -108l-79 76l103 101l-123 55l45 97l120 -62l13 135h109z" />
    <glyph glyph-name="plus" unicode="+" horiz-adv-x="600" 
d="M25 340h177v180h164v-180h177v-157h-177v-183h-164v183h-177v157z" />
    <glyph glyph-name="comma" unicode="," horiz-adv-x="334" 
d="M237 198l-36 -169q-22 -104 -76 -159t-158 -55h-13l19 94q51 4 73.5 24t30.5 67h-85l43 198h202z" />
    <glyph glyph-name="hyphen" unicode="-" horiz-adv-x="407" 
d="M360 349l-35 -165h-312l35 165h312z" />
    <glyph glyph-name="period" unicode="." horiz-adv-x="334" 
d="M236 198l-41 -198h-206l42 198h205z" />
    <glyph glyph-name="slash" unicode="/" horiz-adv-x="426" 
d="M496 731l-382 -748h-184l383 748h183z" />
    <glyph glyph-name="zero" unicode="0" horiz-adv-x="668" 
d="M638 443q0 -64 -13 -127.5t-41.5 -122t-68.5 -103t-99 -71.5t-128 -27q-118 0 -188 70t-70 189q0 65 13 127.5t41 120.5t68.5 102t99 70.5t127.5 26.5q120 0 189.5 -67t69.5 -188zM367 548q-57 0 -91 -54q-26 -41 -43.5 -116.5t-17.5 -130.5q0 -104 91 -104q54 0 83 47
q28 45 47 123t19 137q0 98 -88 98z" />
    <glyph glyph-name="one" unicode="1" horiz-adv-x="668" 
d="M560 692l-147 -692h-208l89 417h-163l32 145h5q93 0 140.5 26.5t86.5 103.5h165z" />
    <glyph glyph-name="two" unicode="2" horiz-adv-x="668" 
d="M599 163l-38 -163h-589q4 41 16.5 76.5t26 61t41.5 52t46.5 42t58 37.5t59.5 32t66 32q102 50 124 67q34 27 34 67q0 32 -22.5 50.5t-60.5 18.5q-91 0 -107 -110h-187q14 132 94.5 202t215.5 70q124 0 196 -57t72 -154q0 -56 -25 -102.5t-73.5 -81.5t-87.5 -55.5
t-100 -46.5q-73 -30 -105 -49q37 6 135 8z" />
    <glyph glyph-name="three" unicode="3" horiz-adv-x="668" 
d="M201 260l-2 -20q0 -44 25.5 -67.5t71.5 -23.5q44 0 72.5 24t28.5 61q0 35 -23.5 50t-76.5 15h-28l25 127h57q98 0 98 65q0 27 -22 43t-60 16q-90 0 -106 -88h-183q17 121 98 179.5t209 58.5q117 0 183.5 -47t66.5 -130q0 -63 -37 -103t-97 -53q98 -28 98 -134
q0 -80 -47.5 -137t-115.5 -82t-146 -25q-56 0 -104.5 13t-88 39t-62.5 70.5t-23 102.5q0 25 3 46h186z" />
    <glyph glyph-name="four" unicode="4" horiz-adv-x="668" 
d="M634 306l-32 -157h-92l-32 -149h-197l31 149h-321l39 174l395 369h199l-80 -386h90zM351 306l18 82q13 62 30 127q-35 -43 -78 -84l-75 -73q-35 -35 -62 -54q25 2 58 2h109z" />
    <glyph glyph-name="five" unicode="5" horiz-adv-x="668" 
d="M644 692l-34 -167h-310l-32 -93q51 40 128 40q97 0 154.5 -54.5t57.5 -145.5q0 -130 -93.5 -206.5t-227.5 -76.5q-52 0 -99 11.5t-88.5 35t-66 66.5t-24.5 99q0 10 1 18h190q12 -74 100 -74q49 0 81.5 30t32.5 75q0 40 -27.5 65t-70.5 25q-59 0 -94 -45h-178l131 397h469
z" />
    <glyph glyph-name="six" unicode="6" horiz-adv-x="668" 
d="M652 509h-188q-8 52 -77 52q-98 0 -144 -159q63 66 155 66q95 0 152 -54.5t57 -145.5q0 -124 -85 -200.5t-210 -76.5q-130 0 -201 75.5t-71 214.5q0 111 40.5 205t125 154t197.5 60t180.5 -51.5t68.5 -139.5zM338 339h-6q-46 0 -76 -29.5t-30 -74.5q0 -41 26.5 -67
t67.5 -26q44 0 73 31.5t29 79.5q0 37 -23.5 61.5t-60.5 24.5z" />
    <glyph glyph-name="seven" unicode="7" horiz-adv-x="668" 
d="M661 692l-33 -160q-119 -101 -205 -237.5t-115 -294.5h-220q19 126 117.5 285.5t206.5 234.5q-18 0 -55 -1.5t-56 -1.5h-209l37 175h532z" />
    <glyph glyph-name="eight" unicode="8" horiz-adv-x="668" 
d="M502 364q116 -32 116 -146q0 -78 -48.5 -131.5t-117 -75t-148.5 -21.5q-43 0 -81.5 5t-80 18.5t-71 35t-48.5 58t-19 83.5q0 71 49 120.5t128 57.5q-89 38 -89 129q0 56 26 97t69.5 63.5t91 32.5t99.5 10q49 0 91 -7.5t83.5 -25.5t65.5 -54.5t24 -88.5q0 -66 -38 -107
t-102 -53zM372 568q-46 0 -78 -18.5t-32 -61.5q0 -33 26 -51.5t72 -18.5q51 0 79.5 21t28.5 59q0 70 -96 70zM317 301q-57 0 -89 -24.5t-32 -67.5q0 -38 29 -58.5t82 -20.5q50 0 84.5 22.5t34.5 71.5q0 37 -28.5 57t-80.5 20z" />
    <glyph glyph-name="nine" unicode="9" horiz-adv-x="668" 
d="M11 182h182q8 -56 81 -56q33 0 56 9.5t38.5 33.5t22.5 41.5t18 54.5l4 13q-58 -58 -150 -58q-97 0 -152.5 55.5t-55.5 150.5q0 120 85.5 197t218.5 77q131 0 198 -75t67 -204q0 -86 -22.5 -162.5t-65.5 -137t-114.5 -96t-162.5 -35.5q-66 0 -119.5 18t-90.5 62.5
t-38 111.5zM353 548q-48 0 -81 -30t-33 -78q0 -40 25.5 -65t65.5 -25q47 0 78 30.5t31 76.5q0 39 -24 65t-62 26z" />
    <glyph glyph-name="colon" unicode=":" horiz-adv-x="334" 
d="M237 198l-41 -198h-204l42 198h203zM302 503l-42 -198h-203l41 198h204z" />
    <glyph glyph-name="semicolon" unicode=";" horiz-adv-x="334" 
d="M236 198l-36 -169q-22 -104 -77 -159.5t-159 -55.5h-11l19 94q49 5 72 25t32 67h-86l43 198h203zM300 503l-42 -197h-203l42 197h203z" />
    <glyph glyph-name="less" unicode="&#x3c;" horiz-adv-x="600" 
d="M556 -28l-578 217v145l578 216v-169l-364 -120l364 -120v-169z" />
    <glyph glyph-name="equal" unicode="=" horiz-adv-x="600" 
d="M9 454h559v-153h-559v153zM9 234h559v-152h-559v152z" />
    <glyph glyph-name="greater" unicode="&#x3e;" horiz-adv-x="600" 
d="M11 550l578 -216v-145l-578 -217v169l365 120l-365 120v169z" />
    <glyph glyph-name="question" unicode="?" horiz-adv-x="574" 
d="M335 195l-40 -195h-200l41 195h199zM339 250h-182q9 73 36 116t89 70q5 2 24 9.5t27.5 12.5t21.5 14t18.5 20.5t5.5 26.5q0 22 -15.5 34.5t-42.5 12.5q-11 0 -19.5 -2t-15 -4t-12 -9t-8.5 -10t-7 -13t-5 -13t-4.5 -16t-4.5 -16h-201q11 112 90 178.5t201 66.5
q119 0 187 -50t68 -138q0 -119 -122 -174q-79 -35 -95 -48q-29 -23 -34 -68z" />
    <glyph glyph-name="at" unicode="@" horiz-adv-x="800" 
d="M466 224q-48 -66 -124 -66q-66 0 -105.5 45.5t-39.5 118.5q0 98 62.5 172t146.5 74q69 0 100 -47l9 30h122l-63 -213q-12 -43 -12 -60q0 -26 26 -26q36 0 68.5 55.5t32.5 125.5q0 99 -70 159.5t-186 60.5q-138 0 -227.5 -87.5t-89.5 -220.5q0 -126 85.5 -206t221.5 -80
q73 0 134 24t132 75l45 -61q-154 -115 -315 -115q-169 0 -280.5 104t-111.5 262q0 162 117 272t288 110q151 0 248.5 -85t97.5 -218q0 -104 -65 -187t-150 -83q-36 0 -62.5 18.5t-34.5 48.5zM433 474q-40 0 -68 -56.5t-28 -106.5q0 -59 38 -59q39 0 66.5 69t27.5 115
q0 38 -36 38z" />
    <glyph glyph-name="A" unicode="A" horiz-adv-x="722" 
d="M548 712l112 -712h-216l-12 101h-233l-55 -101h-225l414 712h215zM395 486q-27 -65 -75 -155l-41 -76h137l-14 127q-6 48 -7 104z" />
    <glyph glyph-name="B" unicode="B" horiz-adv-x="741" 
d="M136 712h330q41 0 71.5 -2.5t65 -12.5t57 -27.5t37.5 -48.5t15 -74q0 -62 -36 -107t-94 -55q99 -35 99 -146q0 -103 -75 -172q-33 -30 -78.5 -46t-79.5 -18.5t-92 -2.5h-372zM313 550l-24 -110h114q41 0 66 12.5t25 50.5q0 17 -7.5 27.5t-23.5 14t-25.5 4.5t-28.5 1h-96z
M260 302l-28 -133h122q62 0 84 15q30 21 30 59q0 21 -9 34t-27.5 18t-31 6t-36.5 1h-8h-96z" />
    <glyph glyph-name="C" unicode="C" horiz-adv-x="759" 
d="M711 270q-27 -140 -120.5 -213.5t-234.5 -73.5q-150 0 -232 83.5t-82 235.5q0 186 104 306t283 120q138 0 220 -71.5t82 -191.5q0 -10 -1 -18h-209q-3 107 -99 107q-43 0 -76 -24.5t-51 -63.5t-27 -80t-9 -81q0 -72 29.5 -111t83.5 -39q96 0 123 115h216z" />
    <glyph glyph-name="D" unicode="D" horiz-adv-x="778" 
d="M139 712h272q99 0 159 -18q81 -24 128.5 -99t47.5 -179q0 -172 -100 -288q-67 -77 -145 -102.5t-195 -25.5h-318zM316 534l-75 -354h69q54 0 83.5 7t53.5 25q35 27 57 78.5t22 107.5q0 78 -39 107t-120 29h-51z" />
    <glyph glyph-name="E" unicode="E" horiz-adv-x="704" 
d="M728 712l-37 -173h-374l-19 -89h347l-35 -165h-347l-22 -104h384l-38 -181h-600l151 712h590z" />
    <glyph glyph-name="F" unicode="F" horiz-adv-x="630" 
d="M686 712l-38 -179h-333l-23 -109h287l-36 -168h-287l-54 -256h-218l151 712h551z" />
    <glyph glyph-name="G" unicode="G" horiz-adv-x="778" 
d="M737 392l-84 -392h-138l7 70q-69 -85 -197 -85q-137 0 -212.5 84t-75.5 223q0 188 111 312t297 124q125 0 210 -65t85 -188v-13h-207q-7 91 -100 91q-47 0 -83 -24t-55.5 -63.5t-29 -82.5t-9.5 -87q0 -145 123 -145q93 0 133 88h-100l33 153h292z" />
    <glyph glyph-name="H" unicode="H" horiz-adv-x="759" 
d="M776 712l-151 -712h-218l60 281h-205l-61 -281h-217l151 712h218l-53 -246h206l53 246h217z" />
    <glyph glyph-name="I" unicode="I" horiz-adv-x="333" 
d="M353 712l-151 -712h-218l151 712h218z" />
    <glyph glyph-name="J" unicode="J" horiz-adv-x="611" 
d="M634 712l-104 -492q-26 -123 -97 -180t-193 -57q-112 0 -174.5 49.5t-62.5 137.5q0 47 17 130h197q-16 -75 -16 -98q0 -48 50 -48q9 0 16 1.5t13 5.5t10 7t7.5 10.5t6 10.5t5 13t3 12.5t3 14.5t2.5 13l100 470h217z" />
    <glyph glyph-name="K" unicode="K" horiz-adv-x="759" 
d="M840 712l-341 -293l206 -419h-247l-130 277l-78 -68l-45 -209h-217l151 712h217l-28 -136q-12 -57 -30 -115q30 38 115 118l141 133h286z" />
    <glyph glyph-name="L" unicode="L" horiz-adv-x="611" 
d="M360 712l-113 -529h318l-39 -183h-536l152 712h218z" />
    <glyph glyph-name="M" unicode="M" horiz-adv-x="944" 
d="M960 712l-151 -712h-203l67 310q24 113 59 237l-15 -37q-47 -118 -99 -223l-139 -287h-163l-18 286q-7 120 -7 257q-17 -139 -38 -241l-62 -302h-206l151 712h305l6 -220q1 -38 1 -115q0 -56 -4 -137q38 142 136 337l68 135h312z" />
    <glyph glyph-name="N" unicode="N" horiz-adv-x="759" 
d="M776 712l-151 -712h-209l-101 284q-32 90 -41 137q-8 -70 -25 -153l-56 -268h-210l151 712h216l97 -281q24 -68 42 -135q6 67 26 166l51 250h210z" />
    <glyph glyph-name="O" unicode="O" horiz-adv-x="796" 
d="M761 425q0 -122 -46 -221t-139 -160t-217 -61q-152 0 -237 83t-85 237q0 183 110.5 305t291.5 122q146 0 234 -80t88 -225zM429 556q-45 0 -80.5 -26t-55 -67t-29.5 -85t-10 -85q0 -66 31.5 -101.5t88.5 -35.5q55 0 95 48t56 105.5t16 109.5q0 61 -27 99t-85 38z" />
    <glyph glyph-name="P" unicode="P" horiz-adv-x="704" 
d="M137 712h308q122 0 192 -49t70 -168q0 -71 -31.5 -132t-85.5 -96q-73 -47 -216 -47h-126l-46 -220h-216zM315 537l-31 -150h99q54 0 83.5 17.5t29.5 67.5q0 38 -23 51.5t-65 13.5h-93z" />
    <glyph glyph-name="Q" unicode="Q" horiz-adv-x="796" 
d="M700 -2l-113 -82l-76 99q-48 -32 -153 -32q-147 0 -233.5 84t-86.5 229q0 191 111.5 312.5t287.5 121.5q153 0 240 -82.5t87 -227.5q0 -192 -136 -328zM456 314l49 -66q42 71 42 168q0 68 -30.5 104t-87.5 36q-44 0 -79 -26t-54.5 -67t-29.5 -84.5t-10 -84.5
q0 -65 30.5 -102t83.5 -37q12 0 29 5l-55 71z" />
    <glyph glyph-name="R" unicode="R" horiz-adv-x="741" 
d="M135 712h327q38 0 66 -2t61.5 -7.5t56.5 -18.5t43.5 -32.5t30.5 -51t10 -72.5q0 -79 -44 -134.5t-121 -65.5q46 -19 61 -55t14 -94q-1 -88 -1 -94q0 -61 9 -85h-213q-6 22 -6 48q0 15 1.5 43.5t1.5 43.5q0 67 -19 91t-84 24h-76l-52 -250h-216zM317 547l-31 -146h125
q44 0 72 20.5t28 63.5q0 62 -93 62h-101z" />
    <glyph glyph-name="S" unicode="S" horiz-adv-x="667" 
d="M653 496h-203q-6 38 -27 54.5t-63 16.5q-37 0 -59 -15t-22 -39q0 -20 16.5 -32t66.5 -25q118 -32 161 -56q95 -54 95 -166q0 -64 -28 -113.5t-75 -78t-102.5 -42.5t-117.5 -14t-115 13.5t-95.5 41t-67 75t-24.5 111.5v13h214q0 -93 108 -93q43 0 68 16.5t25 45.5
q0 8 -1.5 14.5t-6.5 12t-9.5 10t-14 9t-17 8t-22.5 8t-24.5 7.5t-29.5 9t-33 10q-83 25 -131 69.5t-48 123.5q0 60 25.5 107t68 74t94 41t107.5 14q141 0 214 -57t73 -167v-6z" />
    <glyph glyph-name="T" unicode="T" 
d="M705 712l-39 -181h-196l-113 -531h-218l113 531h-202l38 181h617z" />
    <glyph glyph-name="U" unicode="U" horiz-adv-x="759" 
d="M777 712l-85 -415q-33 -160 -113.5 -234t-241.5 -74q-149 0 -227.5 55t-78.5 158q0 29 16 107l85 403h218l-88 -412q-7 -33 -7 -54q0 -40 24 -61.5t68 -21.5q32 0 55.5 13t37.5 39t21 47.5t15 56.5l85 393h216z" />
    <glyph glyph-name="V" unicode="V" 
d="M731 712l-358 -712h-246l-62 712h217l8 -116q6 -82 7 -124q6 -171 -1 -258q43 133 116 296l91 202h228z" />
    <glyph glyph-name="W" unicode="W" horiz-adv-x="963" 
d="M1042 712l-343 -712h-212v169q0 23 11 270q-42 -140 -102 -285l-64 -154h-214l-53 712h217v-232q0 -140 -11 -258q38 140 104 296l81 194h191v-202q0 -163 -12 -294q51 178 106 308l78 188h223z" />
    <glyph glyph-name="X" unicode="X" horiz-adv-x="741" 
d="M800 712l-297 -335l173 -377h-247l-44 111q-22 53 -35 106q-18 -37 -82 -115l-82 -102h-271l338 377l-164 335h239l30 -81q22 -61 39 -118q71 107 76 113l66 86h261z" />
    <glyph glyph-name="Y" unicode="Y" horiz-adv-x="667" 
d="M772 712l-352 -456l-55 -256h-214l55 262l-158 450h222l47 -185q10 -39 19 -95q24 48 59 102l117 178h260z" />
    <glyph glyph-name="Z" unicode="Z" horiz-adv-x="685" 
d="M723 712l-36 -172l-325 -285q-53 -47 -104 -81q53 4 122 4l244 2l-38 -180h-636l39 180l312 276q49 43 107 80q-20 0 -59 -1t-59 -1h-208l38 178h603z" />
    <glyph glyph-name="bracketleft" unicode="[" horiz-adv-x="407" 
d="M474 712l-32 -153h-148l-121 -565h149l-32 -152h-329l185 870h328z" />
    <glyph glyph-name="backslash" unicode="\" horiz-adv-x="426" 
d="M496 -17h-184l-382 748h183z" />
    <glyph glyph-name="bracketright" unicode="]" horiz-adv-x="407" 
d="M420 712l-185 -870h-328l32 152h148l120 566h-148l32 152h329z" />
    <glyph glyph-name="asciicircum" unicode="^" horiz-adv-x="600" 
d="M48 256l176 436h153l175 -436h-158l-94 255l-93 -255h-159z" />
    <glyph glyph-name="underscore" unicode="_" horiz-adv-x="500" 
d="M0 -125v50h500v-50h-500z" />
    <glyph glyph-name="grave" unicode="`" horiz-adv-x="278" 
d="M255 575h-129l-184 144h205z" />
    <glyph glyph-name="a" unicode="a" horiz-adv-x="630" 
d="M58 358q10 52 35 87.5t63.5 53.5t79 25t92.5 7q246 0 246 -136q0 -33 -13 -91l-36 -167q-13 -65 -13 -91q0 -28 6 -46h-199q-2 8 -2 18q0 11 2 32q-56 -67 -165 -67q-78 0 -122.5 39t-44.5 107q0 85 60 126.5t176 51.5q14 1 39 2.5t36 2.5t28.5 3.5t25 6.5t17 10
t12.5 15.5t3 22.5q0 42 -65 42q-32 0 -49 -12t-27 -42h-185zM356 231q-13 -9 -30.5 -13.5t-42 -6.5t-33.5 -4q-64 -12 -64 -59q0 -48 58 -48q47 0 69 24.5t35 74.5z" />
    <glyph glyph-name="b" unicode="b" 
d="M331 712l-53 -247q57 63 145 63q83 0 131.5 -56t48.5 -151q0 -62 -16.5 -120.5t-48 -107.5t-83.5 -78.5t-117 -29.5q-113 0 -151 82l-14 -67h-190l151 712h197zM332 385q-37 0 -63 -30.5t-35.5 -67t-9.5 -72.5q0 -38 19 -59t54 -21q36 0 62 30t36 66.5t10 71.5
q0 82 -73 82z" />
    <glyph glyph-name="c" unicode="c" horiz-adv-x="593" 
d="M549 207q-28 -115 -95 -168t-183 -53q-119 0 -190 58t-71 178q0 140 84.5 222.5t222.5 82.5q115 0 183 -53.5t68 -143.5v-9h-190v6q0 31 -17.5 48t-49.5 17q-39 0 -65.5 -33.5t-35 -72.5t-8.5 -78q0 -92 71 -92q36 0 55 24.5t31 66.5h190z" />
    <glyph glyph-name="d" unicode="d" 
d="M667 712l-151 -712h-189l4 25q2 11 7 34q-49 -72 -142 -72q-95 0 -142 58.5t-47 158.5q0 82 26.5 154t87 122t144.5 50q104 0 150 -77l55 259h197zM312 381q-38 0 -63 -27.5t-34 -61.5t-9 -71q0 -84 73 -84q37 0 61.5 29t33 63.5t8.5 70.5q0 35 -17.5 58t-52.5 23z" />
    <glyph glyph-name="e" unicode="e" horiz-adv-x="630" 
d="M552 152q-52 -167 -275 -167q-121 0 -191 57.5t-70 180.5q0 136 85 221t222 85q122 0 190.5 -62.5t68.5 -173.5q0 -38 -8 -81h-373q-1 -7 -1 -14q0 -86 87 -86q54 0 73 40h192zM217 315h180v11q0 34 -21 54.5t-56 20.5q-37 0 -64.5 -22.5t-38.5 -63.5z" />
    <glyph glyph-name="f" unicode="f" horiz-adv-x="389" 
d="M418 516l-26 -123h-101l-83 -393h-197l82 393h-82l28 123h80l6 26q24 103 75 137.5t161 34.5q41 0 102 -4l-28 -132h-12q-6 0 -16.5 0.5t-14.5 0.5q-39 0 -53 -9.5t-22 -38.5l-4 -15h105z" />
    <glyph glyph-name="g" unicode="g" horiz-adv-x="630" 
d="M616 516l-101 -472q-26 -122 -90.5 -170t-200.5 -48q-246 0 -246 159v12h197q3 -54 62 -54q23 0 38.5 6.5t24.5 24t12.5 27.5t9.5 38l12 52q-46 -57 -132 -57q-89 0 -141.5 55t-52.5 149q0 119 67.5 206t182.5 87q106 0 153 -80l14 65h191zM306 390q-51 0 -78.5 -43.5
t-27.5 -97.5q0 -40 20 -62.5t56 -22.5q45 0 74.5 42t29.5 104q0 36 -19 58t-55 22z" />
    <glyph glyph-name="h" unicode="h" 
d="M327 712l-55 -260q71 76 170 76q68 0 111 -38.5t43 -99.5q0 -38 -9 -79l-67 -311h-197l59 276q6 30 6 45q0 56 -59 56q-25 0 -43 -10.5t-29 -30.5t-16 -36.5t-10 -39.5l-55 -260h-195l152 712h194z" />
    <glyph glyph-name="i" unicode="i" horiz-adv-x="315" 
d="M291 516l-109 -516h-198l110 516h197zM333 712l-29 -138h-198l29 138h198z" />
    <glyph glyph-name="j" unicode="j" horiz-adv-x="315" 
d="M292 516l-100 -472q-14 -68 -29 -105.5t-43 -63.5t-68.5 -34t-109.5 -8q-52 0 -82 3l33 153q14 -1 35 -1q53 0 63 48l103 480h198zM334 712l-30 -138h-199l31 138h198z" />
    <glyph glyph-name="k" unicode="k" horiz-adv-x="611" 
d="M327 712l-59 -276q-3 -17 -20 -79q29 32 36 39l118 120h236l-231 -207l131 -309h-215l-70 187l-46 -38l-32 -149h-196l152 712h196z" />
    <glyph glyph-name="l" unicode="l" horiz-adv-x="315" 
d="M333 712l-151 -712h-198l152 712h197z" />
    <glyph glyph-name="m" unicode="m" horiz-adv-x="963" 
d="M282 516l-14 -66q73 81 171 81q113 0 134 -86q75 86 175 86q73 0 116.5 -40t43.5 -107q0 -44 -13 -103l-60 -281h-200l58 274q8 34 8 52q0 23 -14.5 37.5t-39.5 14.5q-13 0 -23.5 -4t-18 -9t-14 -14t-10 -15.5t-7.5 -18.5t-5 -16.5t-3 -16.5l-2 -11l-57 -273h-198l59 278
q7 37 7 49q0 25 -14 39.5t-38 14.5q-37 0 -55 -27.5t-28 -71.5l-60 -282h-198l110 516h190z" />
    <glyph glyph-name="n" unicode="n" 
d="M281 516l-15 -66q70 80 173 80q71 0 114.5 -38t43.5 -100q0 -34 -10 -81l-66 -311h-200l62 292q4 20 4 30q0 26 -15 40.5t-42 14.5q-72 0 -92 -96l-59 -281h-198l109 516h191z" />
    <glyph glyph-name="o" unicode="o" horiz-adv-x="630" 
d="M580 299q0 -140 -84.5 -227.5t-225.5 -87.5q-117 0 -187.5 57.5t-70.5 174.5q0 139 84.5 226t225.5 87q115 0 186.5 -58t71.5 -172zM314 392q-29 0 -51 -19.5t-33.5 -50t-17 -60t-5.5 -55.5q0 -85 70 -85q29 0 51 19.5t33.5 50t17 60t5.5 55.5q0 38 -17 61.5t-53 23.5z
" />
    <glyph glyph-name="p" unicode="p" 
d="M279 516l-11 -54q60 67 148 67q83 0 133.5 -58.5t50.5 -155.5q0 -59 -16 -115.5t-46.5 -105t-81.5 -78.5t-115 -30q-107 0 -151 74l-48 -227h-198l144 683h191zM334 375q-58 0 -84.5 -46.5t-26.5 -110.5q0 -41 19.5 -63.5t55.5 -22.5q51 0 76.5 52t25.5 109
q0 38 -17.5 60t-48.5 22z" />
    <glyph glyph-name="q" unicode="q" 
d="M625 516l-145 -683h-197l47 218q-27 -36 -60 -50.5t-82 -14.5q-88 0 -134.5 55.5t-46.5 159.5q0 143 73.5 235.5t187.5 92.5q112 0 152 -82l16 69h189zM310 377q-37 0 -62.5 -28.5t-34.5 -63.5t-9 -71q0 -84 72 -84q36 0 61.5 27.5t35 62t9.5 70.5q0 37 -18.5 62
t-53.5 25z" />
    <glyph glyph-name="r" unicode="r" horiz-adv-x="444" 
d="M482 523l-37 -174q-40 13 -74 13q-67 0 -100.5 -34t-47.5 -99l-49 -229h-196l109 516h189l-18 -80q35 48 71.5 71t91.5 23q28 0 61 -7z" />
    <glyph glyph-name="s" unicode="s" horiz-adv-x="556" 
d="M523 365h-179q1 3 1 8q0 45 -60 45q-25 0 -40.5 -11t-15.5 -29q0 -5 1.5 -9.5t4 -8t5.5 -6.5t8 -5t8.5 -3.5t9.5 -3t9 -2t9.5 -1.5t8.5 -1q35 -6 51 -9.5t45 -11.5t43.5 -18t31.5 -26.5t24 -40t7 -54.5q0 -52 -23.5 -90.5t-64 -59.5t-85 -31t-94.5 -10q-45 0 -85 7.5
t-78 25t-60 52t-22 83.5q0 2 0.5 7t0.5 10h182v-6q0 -56 71 -56q65 0 65 41q0 6 -1.5 11.5t-6 9.5t-8.5 7t-12.5 6t-15 5t-18.5 4.5t-20.5 4t-23.5 4.5t-26 5q-139 27 -139 140q0 51 22.5 88t61 56.5t81.5 28t92 8.5q235 0 235 -149v-15z" />
    <glyph glyph-name="t" unicode="t" horiz-adv-x="407" 
d="M425 516l-28 -123h-106l-38 -169q-9 -36 -9 -50q0 -16 8.5 -24.5t18.5 -10t28 -1.5q36 0 54 2l-30 -140q-48 -8 -115 -8q-172 0 -172 120q0 23 17 100l39 181h-86l28 123h86l36 158h197l-34 -158h106z" />
    <glyph glyph-name="u" unicode="u" 
d="M622 516l-109 -516h-192l15 70q-60 -85 -169 -85q-72 0 -114.5 37.5t-42.5 99.5q0 41 9 82l66 312h199l-61 -290q-4 -22 -4 -36q0 -24 15 -37.5t41 -13.5q69 0 90 98l60 279h197z" />
    <glyph glyph-name="v" unicode="v" horiz-adv-x="556" 
d="M592 516l-278 -516h-233l-62 516h200l9 -133q6 -80 6 -130q0 -40 -2 -77q20 70 64 159l89 181h207z" />
    <glyph glyph-name="w" unicode="w" horiz-adv-x="870" 
d="M903 516l-270 -516h-205l-8 186q-2 38 -2 88q0 33 2 57q-19 -58 -57 -144l-82 -187h-205l-52 516h194l8 -167q3 -87 3 -100q0 -23 -3 -70q20 68 73 190l64 147h188l6 -150q3 -93 3 -104q0 -28 -3 -79q21 70 73 188l64 145h209z" />
    <glyph glyph-name="x" unicode="x" horiz-adv-x="556" 
d="M575 516l-207 -249l130 -267h-200l-30 66q-13 31 -25 68q-20 -32 -36 -54l-61 -80h-219l234 276l-119 240h201l25 -62q8 -20 15 -51q19 34 31 51l44 62h217z" />
    <glyph glyph-name="y" unicode="y" horiz-adv-x="556" 
d="M583 516l-268 -513q-37 -70 -65 -103.5t-72 -50t-117 -16.5q-65 0 -114 4l32 156q21 -3 47 -3q42 0 57.5 10t15.5 37q0 26 -14 89l-77 390h200l19 -158q15 -118 15 -189q20 81 68 192l67 155h206z" />
    <glyph glyph-name="z" unicode="z" horiz-adv-x="556" 
d="M552 516l-32 -150l-239 -189q-21 -18 -55 -38q13 0 57 2t68 2h143l-30 -143h-514l32 148l190 150q31 25 108 76q-13 0 -28 -0.5t-44 -0.5h-157l31 143h470z" />
    <glyph glyph-name="braceleft" unicode="{" horiz-adv-x="407" 
d="M9 321q57 11 91 36t45 77l23 109q8 39 24.5 68.5t41 47.5t49 29t59 16t59 6.5t61.5 1.5l-19 -88q-98 -13 -121 -115l-10 -45q-20 -89 -63.5 -133.5t-130.5 -53.5q65 -7 94 -36t29 -83q0 -26 -11 -77t-11 -73q0 -68 77 -78l-19 -88q-115 6 -168 35.5t-53 106.5
q0 32 12.5 93.5t12.5 71.5q0 69 -91 84z" />
    <glyph glyph-name="bar" unicode="|" horiz-adv-x="222" 
d="M30 -214v1000h162v-1000h-162z" />
    <glyph glyph-name="braceright" unicode="}" horiz-adv-x="407" 
d="M380 321l-19 -88q-57 -11 -91 -35.5t-45 -77.5l-24 -109q-10 -47 -34 -80t-50 -50t-66.5 -26t-69.5 -11t-73 -2l19 88q98 13 121 115l10 45q20 88 63.5 133t129.5 54q-64 7 -93 36t-29 83q0 26 11 77t11 73q0 68 -77 78l19 88q115 -6 168 -35.5t53 -106.5
q0 -32 -12.5 -93.5t-12.5 -71.5q0 -69 91 -84z" />
    <glyph glyph-name="asciitilde" unicode="~" horiz-adv-x="600" 
d="M79 141h-96q29 236 167 236q49 0 112 -24q118 -46 149 -46q28 0 45.5 18.5t28.5 61.5h97q-4 -50 -21 -100.5t-56.5 -93t-91.5 -42.5q-48 0 -141 35q-8 3 -25.5 10t-26 10t-22 7.5t-25 6t-22.5 1.5q-51 0 -72 -80z" />
    <glyph glyph-name="sterling" unicode="&#xa3;" horiz-adv-x="668" 
d="M472 411l-25 -123h-94q-5 -67 -70 -132q18 8 57 8q17 0 57 -7q34 -7 52 -7q52 0 99 32l50 -140q-76 -52 -175 -52q-35 0 -129 18q-52 11 -95 11q-64 0 -113 -31l-55 115q63 36 95 73t32 98v14h-107l25 123h67q-22 50 -22 93q0 97 77.5 157.5t201.5 60.5q121 0 186.5 -57
t65.5 -161q0 -12 -1 -23h-191q1 9 1 17q0 31 -16.5 48t-47.5 17t-49 -19t-18 -51q0 -37 16 -82h126z" />
    <glyph glyph-name="currency" unicode="&#xa4;" horiz-adv-x="668" 
d="M596 174l-87 -88l-67 67q-56 -28 -109 -28q-52 0 -110 28l-67 -67l-87 88l67 67q-28 50 -28 109q0 52 28 109l-67 67l87 88l68 -67q65 28 107 28q56 0 110 -29l67 67l87 -87l-66 -66q29 -65 29 -111q0 -54 -29 -109zM414 351q0 33 -23.5 56.5t-57.5 23.5q-33 0 -57 -23.5
t-24 -56.5q0 -34 23.5 -57.5t57.5 -23.5t57.5 23.5t23.5 57.5z" />
    <glyph glyph-name="brokenbar" unicode="&#xa6;" horiz-adv-x="222" 
d="M36 -25v303h150v-303h-150zM36 433v302h150v-302h-150z" />
    <glyph glyph-name="section" unicode="&#xa7;" horiz-adv-x="667" 
d="M617 525h-170q1 4 1 10q0 53 -61 53q-25 0 -41 -13t-16 -34q0 -12 9 -24.5t26 -23t30.5 -17.5t32.5 -15.5t23 -10.5q33 -16 48 -23.5t43.5 -26t42 -34t25.5 -40.5t12 -53q0 -60 -36.5 -104t-97.5 -58q32 -38 32 -91q0 -98 -75 -150.5t-178 -52.5q-109 0 -173 52t-64 140
q0 11 1 22h171l1 -8q4 -33 19.5 -47.5t50.5 -14.5q30 0 47.5 15t17.5 40q0 24 -23 40.5t-84 44.5q-19 8 -29 13q-37 17 -61.5 31.5t-51.5 37t-41 52t-14 65.5q0 62 39 104.5t102 48.5q-31 39 -31 83q0 63 40.5 107.5t95.5 63t116 18.5q103 0 162.5 -47t59.5 -130
q0 -12 -1 -23zM361 207q34 -18 48 -18q17 0 30.5 13.5t13.5 32.5q0 33 -56 64l-84 46q-46 25 -64 25q-19 0 -32.5 -13t-13.5 -33q0 -18 13.5 -32.5t49.5 -33.5z" />
    <glyph glyph-name="copyright" unicode="&#xa9;" horiz-adv-x="800" 
d="M768 357q0 -155 -109.5 -264.5t-264.5 -109.5t-265 109.5t-110 264.5t109.5 264.5t264.5 109.5t265 -109.5t110 -264.5zM683 357q0 120 -85 204.5t-205 84.5t-204.5 -84.5t-84.5 -204.5t84.5 -204.5t204.5 -84.5t205 84.5t85 204.5zM401 137q-90 0 -148.5 63t-58.5 157
q0 98 55.5 160.5t144.5 62.5q77 0 129.5 -47t58.5 -126h-105q-12 76 -78 76q-36 0 -58.5 -32.5t-22.5 -91.5q0 -60 23 -92.5t64 -32.5q33 0 49 17t24 56h105q-9 -78 -59 -124t-123 -46z" />
    <glyph glyph-name="guillemotleft" unicode="&#xab;" horiz-adv-x="444" 
d="M228 480l-31 -153l-98 -73l68 -73l-28 -135l-133 141l35 166zM426 480l-30 -152l-99 -74l68 -73l-28 -136l-133 142l34 165z" />
    <glyph glyph-name="logicalnot" unicode="&#xac;" horiz-adv-x="600" 
d="M16 301v153h538v-392h-150v239h-388z" />
    <glyph glyph-name="registered" unicode="&#xae;" horiz-adv-x="400" 
d="M236 731q76 0 130 -54t54 -130t-54.5 -129.5t-129.5 -53.5q-76 0 -130 54t-54 129q0 77 54 130.5t130 53.5zM236 692q-60 0 -102.5 -43t-42.5 -102q0 -60 42.5 -102t102.5 -42t102.5 42.5t42.5 101.5q0 60 -42.5 102.5t-102.5 42.5zM155 650h97q33 0 53 -16t20 -46
q0 -37 -36 -49q20 -10 25.5 -22t7.5 -37l1 -12q3 -21 4 -24h-58q-4 12 -4 28q0 27 -7 35t-31 8h-11v-71h-61v206zM216 560h13q35 0 35 24q0 22 -34 22h-14v-46z" />
    <glyph glyph-name="degree" unicode="&#xb0;" horiz-adv-x="400" 
d="M242 699q71 0 122 -50.5t51 -121.5q0 -72 -51 -122.5t-122 -50.5t-122 50.5t-51 122.5q0 71 51 121.5t122 50.5zM187 527q0 -23 16.5 -39.5t38.5 -16.5t38.5 16.5t16.5 39.5t-16.5 39t-38.5 16t-38.5 -16t-16.5 -39z" />
    <glyph glyph-name="plusminus" unicode="&#xb1;" horiz-adv-x="600" 
d="M203 188v117h-184v156h184v111h170v-111h184v-155h-184v-118h-170zM18 0v158h538v-158h-538z" />
    <glyph glyph-name="mu" unicode="&#xb5;" 
d="M623 516l-110 -516h-192l10 45q-45 -58 -96 -58q-40 0 -60 32l-38 -186h-198l146 683h200l-63 -296q-3 -12 -3 -26q0 -57 59 -57q23 0 39.5 9.5t26.5 30t14 34.5t10 41l57 264h198z" />
    <glyph glyph-name="paragraph" unicode="&#xb6;" horiz-adv-x="620" 
d="M668 715l-20 -96h-50l-166 -786h-124l166 786h-91l-166 -786h-124l85 406q-75 2 -118.5 49t-43.5 128q0 136 94.5 217.5t230.5 81.5h327z" />
    <glyph glyph-name="periodcentered" unicode="&#xb7;" horiz-adv-x="334" 
d="M275 385l-41 -198h-206l42 198h205z" />
    <glyph glyph-name="guillemotright" unicode="&#xbb;" horiz-adv-x="444" 
d="M71 481l132 -141l-35 -166l-187 -127l31 152l97 74l-67 72zM268 481l132 -141l-34 -166l-187 -127l31 153l97 73l-68 73z" />
    <glyph glyph-name="divide" unicode="&#xf7;" horiz-adv-x="600" 
d="M8 345h558v-167h-558v167zM374 549v-168h-176v168h176zM374 142v-168h-176v168h176z" />
    <glyph glyph-name="florin" unicode="&#x192;" horiz-adv-x="668" 
d="M543 410l-33 -118h-93l-74 -264q-33 -118 -90.5 -160.5t-179.5 -42.5q-43 0 -69 4l39 144q11 -1 22 -1q22 0 36.5 5.5t23.5 18t13 24t10 33.5q1 5 2 8l63 231h-95l32 118h95l29 108q29 110 83 157.5t168 47.5q27 0 87 -5l12 -1l-37 -138q-20 2 -38 2q-37 0 -51 -17.5
t-24 -57.5l-25 -96h94z" />
    <glyph glyph-name="afii10023" unicode="&#x401;" horiz-adv-x="704" 
d="M728 712l-37 -173h-374l-19 -89h347l-35 -165h-347l-22 -104h384l-38 -181h-600l151 712h590zM447 906l-29 -137h-175l29 137h175zM676 906l-29 -137h-176l30 137h175z" />
    <glyph glyph-name="afii10051" unicode="&#x402;" horiz-adv-x="857" 
d="M454 66h25q51 0 83.5 46t32.5 99q0 75 -74 75q-48 0 -80 -32t-43 -88l-35 -166h-223l112 529h-181l39 183h624l-39 -183h-220l-30 -143q26 25 71.5 45t89.5 20q100 0 154 -57.5t54 -157.5q0 -146 -99.5 -240.5t-250.5 -94.5h-45z" />
    <glyph glyph-name="afii10052" unicode="&#x403;" horiz-adv-x="611" 
d="M319 529l-113 -529h-219l152 712h535l-39 -183h-316zM591 911l-190 -145h-131l112 145h209z" />
    <glyph glyph-name="afii10053" unicode="&#x404;" horiz-adv-x="759" 
d="M479 443l-33 -158h-186q4 -62 33 -96t79 -34q96 0 123 115h216q-27 -140 -120.5 -213.5t-234.5 -73.5q-150 0 -232 83.5t-82 235.5q0 186 104 306t283 120q138 0 220 -71.5t82 -191.5v-9h-210q-8 98 -99 98q-93 0 -137 -111h194z" />
    <glyph glyph-name="afii10054" unicode="&#x405;" horiz-adv-x="667" 
d="M653 496h-203q-6 38 -27 54.5t-63 16.5q-37 0 -59 -15t-22 -39q0 -20 16.5 -32t66.5 -25q118 -32 161 -56q95 -54 95 -166q0 -64 -28 -113.5t-75 -78t-102.5 -42.5t-117.5 -14t-115 13.5t-95.5 41t-67 75t-24.5 111.5v13h214q0 -93 108 -93q43 0 68 16.5t25 45.5
q0 8 -1.5 14.5t-6.5 12t-9.5 10t-14 9t-17 8t-22.5 8t-24.5 7.5t-29.5 9t-33 10q-83 25 -131 69.5t-48 123.5q0 60 25.5 107t68 74t94 41t107.5 14q141 0 214 -57t73 -167v-6z" />
    <glyph glyph-name="afii10055" unicode="&#x406;" horiz-adv-x="333" 
d="M353 712l-151 -712h-218l151 712h218z" />
    <glyph glyph-name="afii10056" unicode="&#x407;" horiz-adv-x="333" 
d="M353 712l-151 -712h-218l151 712h218zM247 906l-29 -137h-175l29 137h175zM476 906l-29 -137h-176l30 137h175z" />
    <glyph glyph-name="afii10057" unicode="&#x408;" horiz-adv-x="611" 
d="M634 712l-104 -492q-26 -123 -97 -180t-193 -57q-112 0 -174.5 49.5t-62.5 137.5q0 47 17 130h197q-16 -75 -16 -98q0 -48 50 -48q9 0 16 1.5t13 5.5t10 7t7.5 10.5t6 10.5t5 13t3 12.5t3 14.5t2.5 13l100 470h217z" />
    <glyph glyph-name="afii10058" unicode="&#x409;" horiz-adv-x="1100" 
d="M518 529h-121l-9 -42q-47 -220 -81 -302q-58 -146 -165 -183q-44 -15 -98 -15q-58 0 -94 16l36 169q15 -11 48 -11q44 0 69 56.5t53 188.5l65 306h553l-51 -241h73q49 0 85 -4t71.5 -16.5t58 -33.5t36.5 -57t14 -85q0 -71 -31.5 -132t-85.5 -96q-73 -47 -216 -47h-323z
M851 251q0 38 -22.5 50t-65.5 12h-73l-31 -147h79q54 0 83.5 17.5t29.5 67.5z" />
    <glyph glyph-name="afii10059" unicode="&#x40a;" horiz-adv-x="1100" 
d="M462 285h-199l-62 -285h-217l151 712h218l-52 -241h200l52 241h217l-51 -241h73q49 0 85 -4t71.5 -16.5t58 -33.5t36.5 -57t14 -85q0 -71 -31.5 -132t-85.5 -96q-73 -47 -216 -47h-323zM847 251q0 38 -22.5 50t-65.5 12h-73l-31 -147h79q54 0 83.5 17.5t29.5 67.5z" />
    <glyph glyph-name="afii10060" unicode="&#x40b;" horiz-adv-x="857" 
d="M352 0h-223l113 529h-181l39 183h624l-39 -183h-220l-20 -93q13 5 51.5 10t58.5 5q55 0 96 -7t81 -25.5t61.5 -58t21.5 -97.5q0 -37 -11 -89l-37 -174h-224l34 158q6 25 6 49q0 79 -83 79q-45 0 -90 -15z" />
    <glyph glyph-name="afii10061" unicode="&#x40c;" horiz-adv-x="759" 
d="M840 712l-341 -293l206 -419h-247l-130 277l-78 -68l-45 -209h-217l151 712h217l-28 -136q-12 -57 -30 -115q30 38 115 118l141 133h286zM681 911l-190 -145h-131l112 145h209z" />
    <glyph glyph-name="afii10062" unicode="&#x40e;" horiz-adv-x="667" 
d="M240 907h108v-8q0 -56 68 -56q74 0 98 64h105q-12 -84 -70.5 -126.5t-143.5 -42.5q-167 0 -167 134q0 9 2 35zM189 245l-128 467h234l22 -157q11 -77 21 -185q29 66 64 135l107 207h248l-372 -582q-94 -148 -238 -148q-42 0 -83 7.5t-57 15.5l37 171q5 -6 29 -13.5
t47 -7.5q24 0 44.5 13.5t26.5 38.5q3 18 -2 38z" />
    <glyph glyph-name="afii10145" unicode="&#x40f;" horiz-adv-x="759" 
d="M424 0l-35 -167h-203l35 167h-221l151 712h219l-111 -526h206l111 526h218l-151 -712h-219z" />
    <glyph glyph-name="afii10017" unicode="&#x410;" horiz-adv-x="722" 
d="M548 712l112 -712h-216l-12 101h-233l-55 -101h-225l414 712h215zM395 486q-27 -65 -75 -155l-41 -76h137l-14 127q-6 48 -7 104z" />
    <glyph glyph-name="afii10018" unicode="&#x411;" horiz-adv-x="741" 
d="M311 545l-20 -94h160q43 0 80.5 -8t73.5 -28t57 -59t21 -95q0 -93 -43 -155.5t-119 -87.5q-54 -18 -148 -18h-390l152 712h589l-36 -167h-377zM470 244q0 53 -83 53h-129l-27 -131h145q46 0 70 16t24 62z" />
    <glyph glyph-name="afii10019" unicode="&#x412;" horiz-adv-x="741" 
d="M136 712h330q41 0 71.5 -2.5t65 -12.5t57 -27.5t37.5 -48.5t15 -74q0 -62 -36 -107t-94 -55q99 -35 99 -146q0 -103 -75 -172q-33 -30 -78.5 -46t-79.5 -18.5t-92 -2.5h-372zM313 550l-24 -110h114q41 0 66 12.5t25 50.5q0 17 -7.5 27.5t-23.5 14t-25.5 4.5t-28.5 1h-96z
M260 302l-28 -133h122q62 0 84 15q30 21 30 59q0 21 -9 34t-27.5 18t-31 6t-36.5 1h-8h-96z" />
    <glyph glyph-name="afii10020" unicode="&#x413;" horiz-adv-x="611" 
d="M319 529l-113 -529h-219l152 712h535l-39 -183h-316z" />
    <glyph glyph-name="afii10021" unicode="&#x414;" horiz-adv-x="804" 
d="M244 712h546l-112 -530h88l-74 -348h-198l35 166h-395l-35 -166h-199l74 348h64q129 148 193 466zM464 182l74 351h-135l-10 -48q-17 -82 -55 -166t-74 -137h200z" />
    <glyph glyph-name="afii10022" unicode="&#x415;" horiz-adv-x="704" 
d="M728 712l-37 -173h-374l-19 -89h347l-35 -165h-347l-22 -104h384l-38 -181h-600l151 712h590z" />
    <glyph glyph-name="afii10024" unicode="&#x416;" horiz-adv-x="1137" 
d="M403 291l-194 -291h-276l353 466l-164 246h241l125 -227l49 227h218l-49 -227l223 227h261l-301 -275l156 -437h-247l-76 284l-72 -66l-47 -218h-218l53 238z" />
    <glyph glyph-name="afii10025" unicode="&#x417;" horiz-adv-x="676" 
d="M421 233q0 71 -105 71q-7 0 -26.5 -0.5t-26.5 -0.5l29 136q12 -1 44 -1q120 0 120 74q0 26 -23 42t-62 16q-43 0 -73.5 -19t-35.5 -51h-205q16 116 105.5 173.5t224.5 57.5t203 -47.5t68 -128.5q0 -62 -35.5 -107t-92.5 -62q46 -11 76 -49.5t30 -97.5
q0 -122 -93.5 -187.5t-239.5 -65.5q-63 0 -116.5 13.5t-98 41t-70 75t-25.5 111.5v13h214q0 -93 108 -93q48 0 77 22t29 64z" />
    <glyph glyph-name="afii10026" unicode="&#x418;" horiz-adv-x="759" 
d="M777 712l-152 -712h-208l57 268q24 110 43 175l-301 -443h-234l152 712h209l-58 -270q-24 -108 -41 -169l300 439h233z" />
    <glyph glyph-name="afii10027" unicode="&#x419;" horiz-adv-x="759" 
d="M756 712l-151 -712h-208l57 268q28 128 43 175l-301 -443h-234l151 712h209l-57 -270q-18 -82 -41 -169l299 439h233zM285 907h108v-8q0 -56 68 -56q74 0 98 64h105q-12 -84 -70.5 -126.5t-143.5 -42.5q-167 0 -167 134q0 9 2 35z" />
    <glyph glyph-name="afii10028" unicode="&#x41a;" horiz-adv-x="759" 
d="M840 712l-341 -293l206 -419h-247l-130 277l-78 -68l-45 -209h-217l151 712h217l-28 -136q-12 -57 -30 -115q30 38 115 118l141 133h286z" />
    <glyph glyph-name="afii10029" unicode="&#x41b;" horiz-adv-x="779" 
d="M221 712h563l-151 -712h-217l112 529h-131l-9 -42q-47 -220 -81 -302q-58 -146 -165 -183q-44 -15 -98 -15q-58 0 -94 16l36 169q15 -11 48 -11q44 0 69 56.5t53 188.5z" />
    <glyph glyph-name="afii10030" unicode="&#x41c;" horiz-adv-x="944" 
d="M960 712l-151 -712h-203l67 310q24 113 59 237l-15 -37q-47 -118 -99 -223l-139 -287h-163l-18 286q-7 120 -7 257q-17 -139 -38 -241l-62 -302h-206l151 712h305l6 -220q1 -38 1 -115q0 -56 -4 -137q38 142 136 337l68 135h312z" />
    <glyph glyph-name="afii10031" unicode="&#x41d;" horiz-adv-x="759" 
d="M776 712l-151 -712h-218l60 281h-205l-61 -281h-217l151 712h218l-53 -246h206l53 246h217z" />
    <glyph glyph-name="afii10032" unicode="&#x41e;" horiz-adv-x="796" 
d="M761 425q0 -122 -46 -221t-139 -160t-217 -61q-152 0 -237 83t-85 237q0 183 110.5 305t291.5 122q146 0 234 -80t88 -225zM429 556q-45 0 -80.5 -26t-55 -67t-29.5 -85t-10 -85q0 -66 31.5 -101.5t88.5 -35.5q55 0 95 48t56 105.5t16 109.5q0 61 -27 99t-85 38z" />
    <glyph glyph-name="afii10033" unicode="&#x41f;" horiz-adv-x="759" 
d="M776 712l-151 -712h-218l113 529h-205l-114 -529h-217l151 712h641z" />
    <glyph glyph-name="afii10034" unicode="&#x420;" horiz-adv-x="704" 
d="M137 712h308q122 0 192 -49t70 -168q0 -71 -31.5 -132t-85.5 -96q-73 -47 -216 -47h-126l-46 -220h-216zM315 537l-31 -150h99q54 0 83.5 17.5t29.5 67.5q0 38 -23 51.5t-65 13.5h-93z" />
    <glyph glyph-name="afii10035" unicode="&#x421;" horiz-adv-x="759" 
d="M711 270q-27 -140 -120.5 -213.5t-234.5 -73.5q-150 0 -232 83.5t-82 235.5q0 186 104 306t283 120q138 0 220 -71.5t82 -191.5q0 -10 -1 -18h-209q-3 107 -99 107q-43 0 -76 -24.5t-51 -63.5t-27 -80t-9 -81q0 -72 29.5 -111t83.5 -39q96 0 123 115h216z" />
    <glyph glyph-name="afii10036" unicode="&#x422;" 
d="M705 712l-39 -181h-196l-113 -531h-218l113 531h-202l38 181h617z" />
    <glyph glyph-name="afii10037" unicode="&#x423;" horiz-adv-x="667" 
d="M189 245l-128 467h234l22 -157q11 -77 21 -185q29 66 64 135l107 207h248l-372 -582q-94 -148 -238 -148q-42 0 -83 7.5t-57 15.5l37 171q5 -6 29 -13.5t47 -7.5q24 0 44.5 13.5t26.5 38.5q3 18 -2 38z" />
    <glyph glyph-name="afii10038" unicode="&#x424;" horiz-adv-x="937" 
d="M904 392q0 -100 -51 -174.5t-133.5 -111.5t-182.5 -37h-21l-15 -69h-214l15 71q-126 6 -196 76.5t-70 172.5q0 100 51 174.5t133.5 111.5t182.5 37h21l15 69h214l-15 -71q126 -6 196 -76.5t70 -172.5zM684 384q0 94 -80 102l-54 -261h4q61 0 95.5 48t34.5 111zM390 487
h-4q-61 0 -95.5 -48t-34.5 -111q0 -94 80 -102z" />
    <glyph glyph-name="afii10039" unicode="&#x425;" horiz-adv-x="741" 
d="M800 712l-297 -335l173 -377h-247l-44 111q-22 53 -35 106q-18 -37 -82 -115l-82 -102h-271l338 377l-164 335h239l30 -81q22 -61 39 -118q71 107 76 113l66 86h261z" />
    <glyph glyph-name="afii10040" unicode="&#x426;" horiz-adv-x="778" 
d="M777 712l-111 -526h88l-75 -353h-203l35 167h-518l151 712h219l-111 -526h196l111 526h218z" />
    <glyph glyph-name="afii10041" unicode="&#x427;" horiz-adv-x="722" 
d="M317 258q-128 0 -186.5 43.5t-58.5 136.5q0 48 11 99l38 175h217l-31 -145q-9 -39 -9 -68q0 -35 17.5 -53t58.5 -18q22 0 53 5.5t40 9.5l58 269h217l-152 -712h-217l59 275q-9 -4 -54 -10.5t-61 -6.5z" />
    <glyph glyph-name="afii10042" unicode="&#x428;" horiz-adv-x="1095" 
d="M-18 0l152 712h214l-112 -527h168l112 527h215l-112 -527h168l112 527h214l-152 -712h-979z" />
    <glyph glyph-name="afii10043" unicode="&#x429;" horiz-adv-x="1129" 
d="M1026 -167h-203l35 167h-864l151 712h214l-112 -527h168l112 527h215l-112 -527h168l112 527h214l-111 -526h88z" />
    <glyph glyph-name="afii10044" unicode="&#x42a;" horiz-adv-x="840" 
d="M799 275q0 -71 -31.5 -132t-85.5 -96q-73 -47 -216 -47h-344l113 529h-183l39 183h401l-48 -222h93q123 0 192.5 -48.5t69.5 -166.5zM589 258q0 38 -23 51.5t-65 13.5h-93l-31 -150h99q54 0 83.5 17.5t29.5 67.5z" />
    <glyph glyph-name="afii10045" unicode="&#x42b;" horiz-adv-x="1011" 
d="M1029 712l-152 -712h-218l152 712h218zM629 275q0 -71 -31.5 -132t-85.5 -96q-73 -47 -216 -47h-314l152 712h218l-48 -222h63q123 0 192.5 -48.5t69.5 -166.5zM419 258q0 38 -23 51.5t-65 13.5h-63l-31 -150h69q54 0 83.5 17.5t29.5 67.5z" />
    <glyph glyph-name="afii10046" unicode="&#x42c;" horiz-adv-x="704" 
d="M659 275q0 -71 -31.5 -132t-85.5 -96q-73 -47 -216 -47h-344l152 712h218l-48 -222h93q123 0 192.5 -48.5t69.5 -166.5zM449 258q0 38 -23 51.5t-65 13.5h-93l-31 -150h99q54 0 83.5 17.5t29.5 67.5z" />
    <glyph glyph-name="afii10047" unicode="&#x42d;" horiz-adv-x="759" 
d="M722 409q0 -186 -104 -306t-283 -120q-138 0 -220 71.5t-82 191.5q0 10 1 18h209q3 -107 99 -107q101 0 144 128h-206l34 157h189q-7 55 -35.5 84.5t-75.5 29.5q-84 0 -116 -90h-218q32 128 123.5 195t226.5 67q150 0 232 -83.5t82 -235.5z" />
    <glyph glyph-name="afii10048" unicode="&#x42e;" horiz-adv-x="1094" 
d="M1059 425q0 -122 -43.5 -221t-130.5 -160t-204 -61q-138 0 -217.5 78t-84.5 223h-116l-62 -284h-217l151 712h218l-54 -249h104q39 122 131.5 194.5t222.5 72.5q137 0 219.5 -80t82.5 -225zM745 556q-39 0 -70 -26t-48 -67t-25.5 -85t-8.5 -85q0 -66 27.5 -101.5
t76.5 -35.5q36 0 65.5 27.5t46 69.5t25 85.5t8.5 80.5q0 61 -23 99t-74 38z" />
    <glyph glyph-name="afii10049" unicode="&#x42f;" horiz-adv-x="741" 
d="M759 712l-152 -712h-214l55 258h-59l-203 -258h-266l268 300q-101 50 -101 173q0 36 17.5 75.5t52 77t96.5 62t140 24.5h366zM510 552h-105q-44 0 -72 -20.5t-28 -63.5q0 -62 93 -62h81z" />
    <glyph glyph-name="afii10065" unicode="&#x430;" horiz-adv-x="630" 
d="M58 358q10 52 35 87.5t63.5 53.5t79 25t92.5 7q246 0 246 -136q0 -33 -13 -91l-36 -167q-13 -65 -13 -91q0 -28 6 -46h-199q-2 8 -2 18q0 11 2 32q-56 -67 -165 -67q-78 0 -122.5 39t-44.5 107q0 85 60 126.5t176 51.5q14 1 39 2.5t36 2.5t28.5 3.5t25 6.5t17 10
t12.5 15.5t3 22.5q0 42 -65 42q-32 0 -49 -12t-27 -42h-185zM356 231q-13 -9 -30.5 -13.5t-42 -6.5t-33.5 -4q-64 -12 -64 -59q0 -48 58 -48q47 0 69 24.5t35 74.5z" />
    <glyph glyph-name="afii10066" unicode="&#x431;" horiz-adv-x="630" 
d="M384 293q0 81 -66 81q-28 0 -48.5 -16t-30.5 -42.5t-14.5 -52.5t-4.5 -52q0 -84 65 -84q37 0 60.5 30t31 64.5t7.5 71.5zM265 -15q-104 0 -172 69t-68 171q0 64 10.5 126.5t36 131t77 123t124.5 81.5q32 12 72 17.5t66 12t43 23.5h182q-8 -42 -28.5 -73.5t-39.5 -48.5
t-62.5 -31t-63.5 -18t-76 -13q-15 -3 -23 -4q-140 -23 -171 -132h3q66 96 197 96q86 0 148 -62t62 -160q0 -132 -92.5 -220.5t-224.5 -88.5z" />
    <glyph glyph-name="afii10067" unicode="&#x432;" horiz-adv-x="619" 
d="M82 516h316q37 0 64.5 -4t55.5 -15.5t43 -36.5t15 -64q0 -45 -26 -77.5t-68 -39.5q72 -26 72 -106q0 -74 -55 -124q-24 -22 -56.5 -33.5t-57 -13.5t-67.5 -2h-347zM250 399l-18 -80h77q66 0 66 46q0 16 -11.5 24t-22 9t-28.5 1h-63zM211 219l-20 -97h77q44 0 60 11
q22 16 22 43q0 15 -6.5 24.5t-20 13.5t-22.5 4.5t-26 0.5h-6h-58z" />
    <glyph glyph-name="afii10068" unicode="&#x433;" horiz-adv-x="500" 
d="M94 516h430l-32 -149h-233l-78 -367h-197z" />
    <glyph glyph-name="afii10069" unicode="&#x434;" 
d="M542 -137h-177l29 137h-286l-29 -137h-174l61 286h53q88 98 146 367h454l-78 -367h62zM351 149l47 224h-94l-1 -6q-7 -41 -34 -111.5t-59 -106.5h141z" />
    <glyph glyph-name="afii10070" unicode="&#x435;" horiz-adv-x="630" 
d="M552 152q-52 -167 -275 -167q-121 0 -191 57.5t-70 180.5q0 136 85 221t222 85q122 0 190.5 -62.5t68.5 -173.5q0 -38 -8 -81h-373q-1 -7 -1 -14q0 -86 87 -86q54 0 73 40h192zM217 315h180v11q0 34 -21 54.5t-56 20.5q-37 0 -64.5 -22.5t-38.5 -63.5z" />
    <glyph glyph-name="afii10072" unicode="&#x436;" horiz-adv-x="906" 
d="M827 0h-214l-60 170l-42 -38l-27 -132h-189l31 148l-23 29l-138 -177h-236l285 319l-137 197h215l76 -162h2l35 162h189l-35 -162h2l145 162h240l-246 -217z" />
    <glyph glyph-name="afii10073" unicode="&#x437;" horiz-adv-x="593" 
d="M326 172q0 41 -75 41q-25 0 -37 -1l22 104q24 0 39 1.5t32 6t25.5 15.5t8.5 29q0 19 -14 30.5t-37 11.5q-58 0 -73 -49h-182q24 168 273 168q233 0 233 -128q0 -42 -25 -75t-68 -48q37 -10 57.5 -38.5t20.5 -63.5q0 -99 -77 -145t-209 -46q-49 0 -90 7.5t-79.5 25
t-60.5 52t-22 83.5q0 2 0.5 8t0.5 11h182v-8q0 -56 71 -56q37 0 60.5 16.5t23.5 47.5z" />
    <glyph glyph-name="afii10074" unicode="&#x438;" 
d="M429 516h202l-110 -516h-189l59 275h-3l-204 -275h-202l110 516h189l-57 -268h3z" />
    <glyph glyph-name="afii10075" unicode="&#x439;" 
d="M550 712q-14 -77 -67 -117t-125 -40q-69 0 -111 34t-42 96q0 17 2 27h91q-1 -3 -1 -8q0 -47 73 -47q70 0 90 55h90zM429 516h202l-110 -516h-189l59 275h-3l-204 -275h-202l110 516h189l-57 -268h3z" />
    <glyph glyph-name="afii10076" unicode="&#x43a;" horiz-adv-x="611" 
d="M638 516l-235 -216l141 -300h-216l-66 170l-63 -57l-23 -113h-197l110 516h192l-36 -170h3l160 170h230z" />
    <glyph glyph-name="afii10077" unicode="&#x43b;" horiz-adv-x="630" 
d="M0 138q15 0 26.5 10.5t21 33t15.5 42t14 51.5l3 12q16 60 52 229h485l-110 -516h-196l78 367h-99q-29 -132 -61 -211q-38 -90 -87 -128t-131 -38q-13 0 -34 3.5t-35 6.5l-15 4l30 141q30 -7 43 -7z" />
    <glyph glyph-name="afii10078" unicode="&#x43c;" horiz-adv-x="800" 
d="M231 323h-3l-64 -323h-183l110 516h243l34 -301h1l161 301h252l-110 -516h-183l74 323h-3l-175 -323h-117z" />
    <glyph glyph-name="afii10079" unicode="&#x43d;" 
d="M398 346l36 170h197l-110 -516h-197l42 197h-145l-42 -197h-197l110 516h197l-36 -170h145z" />
    <glyph glyph-name="afii10080" unicode="&#x43e;" horiz-adv-x="630" 
d="M580 299q0 -140 -84.5 -227.5t-225.5 -87.5q-117 0 -187.5 57.5t-70.5 174.5q0 139 84.5 226t225.5 87q115 0 186.5 -58t71.5 -172zM314 392q-29 0 -51 -19.5t-33.5 -50t-17 -60t-5.5 -55.5q0 -85 70 -85q29 0 51 19.5t33.5 50t17 60t5.5 55.5q0 38 -17 61.5t-53 23.5z
" />
    <glyph glyph-name="afii10081" unicode="&#x43f;" 
d="M631 516l-110 -516h-197l78 367h-145l-78 -367h-197l110 516h539z" />
    <glyph glyph-name="afii10082" unicode="&#x440;" 
d="M279 516l-11 -54q60 67 148 67q83 0 133.5 -58.5t50.5 -155.5q0 -59 -16 -115.5t-46.5 -105t-81.5 -78.5t-115 -30q-107 0 -151 74l-48 -227h-198l144 683h191zM334 375q-58 0 -84.5 -46.5t-26.5 -110.5q0 -41 19.5 -63.5t55.5 -22.5q51 0 76.5 52t25.5 109
q0 38 -17.5 60t-48.5 22z" />
    <glyph glyph-name="afii10083" unicode="&#x441;" horiz-adv-x="593" 
d="M549 207q-28 -115 -95 -168t-183 -53q-119 0 -190 58t-71 178q0 140 84.5 222.5t222.5 82.5q115 0 183 -53.5t68 -143.5v-9h-190v6q0 31 -17.5 48t-49.5 17q-39 0 -65.5 -33.5t-35 -72.5t-8.5 -78q0 -92 71 -92q36 0 55 24.5t31 66.5h190z" />
    <glyph glyph-name="afii10084" unicode="&#x442;" horiz-adv-x="556" 
d="M185 367h-165l32 149h526l-32 -149h-165l-78 -367h-196z" />
    <glyph glyph-name="afii10085" unicode="&#x443;" horiz-adv-x="556" 
d="M583 516l-268 -513q-37 -70 -65 -103.5t-72 -50t-117 -16.5q-65 0 -114 4l32 156q21 -3 47 -3q42 0 57.5 10t15.5 37q0 26 -14 89l-77 390h200l19 -158q15 -118 15 -189q20 81 68 192l67 155h206z" />
    <glyph glyph-name="afii10086" unicode="&#x444;" horiz-adv-x="900" 
d="M865 325q0 -84 -28.5 -159.5t-92 -128t-150.5 -52.5q-37 0 -67 15t-41 32h-3l-44 -206h-191l47 217h-3q-16 -23 -51.5 -40.5t-70.5 -17.5q-78 0 -120.5 60t-42.5 146q0 84 28.5 159t92 127t150.5 52q37 0 67 -14t41 -31h3l48 228h191l-51 -239h3q15 22 50.5 39t71.5 17
q78 0 120.5 -59.5t42.5 -144.5zM670 314q0 31 -15 49.5t-45 18.5q-16 0 -33.5 -8t-24.5 -20l-41 -190q4 -11 19.5 -20.5t30.5 -9.5q38 0 64 32t35.5 70.5t9.5 77.5zM361 352q-4 11 -19.5 20.5t-30.5 9.5q-38 0 -64 -32t-35.5 -70.5t-9.5 -77.5q0 -31 15 -49.5t45 -18.5
q16 0 33.5 8t24.5 20z" />
    <glyph glyph-name="afii10087" unicode="&#x445;" horiz-adv-x="556" 
d="M575 516l-207 -249l130 -267h-200l-30 66q-13 31 -25 68q-20 -32 -36 -54l-61 -80h-219l234 276l-119 240h201l25 -62q8 -20 15 -51q19 34 31 51l44 62h217z" />
    <glyph glyph-name="afii10088" unicode="&#x446;" horiz-adv-x="667" 
d="M568 -137h-180l29 137h-427l109 516h197l-77 -365h145l77 365h197l-77 -365h68z" />
    <glyph glyph-name="afii10089" unicode="&#x447;" horiz-adv-x="611" 
d="M595 516l-110 -516h-183l43 203q-90 -30 -165 -30q-143 0 -143 134q0 31 9 72l29 137h197l-24 -112q-5 -27 -5 -41q0 -28 13.5 -40t41.5 -12q32 0 60 16l40 189h197z" />
    <glyph glyph-name="afii10090" unicode="&#x448;" horiz-adv-x="920" 
d="M-19 0l110 516h193l-78 -365h117l78 365h192l-78 -365h117l78 365h193l-110 -516h-812z" />
    <glyph glyph-name="afii10091" unicode="&#x449;" horiz-adv-x="940" 
d="M-9 0l109 516h193l-77 -365h117l77 365h192l-77 -365h117l77 365h193l-77 -365h67l-61 -288h-180l29 137h-699z" />
    <glyph glyph-name="afii10092" unicode="&#x44a;" horiz-adv-x="686" 
d="M145 367h-134l32 149h330l-34 -161h105q89 0 139.5 -35t50.5 -121q0 -51 -23 -95t-62 -70q-53 -34 -157 -34h-326zM433 187q0 28 -17 37.5t-47 9.5h-56l-23 -109h61q39 0 60.5 13t21.5 49z" />
    <glyph glyph-name="afii10093" unicode="&#x44b;" horiz-adv-x="853" 
d="M728 0h-192l110 516h192zM527 199q0 -51 -23 -95t-62 -70q-53 -34 -157 -34h-305l110 516h193l-34 -161h88q89 0 139.5 -35t50.5 -121zM326 187q0 28 -17 37.5t-47 9.5h-39l-23 -109h44q39 0 60.5 13t21.5 49z" />
    <glyph glyph-name="afii10094" unicode="&#x44c;" horiz-adv-x="600" 
d="M549 199q0 -51 -23 -95t-62 -70q-53 -34 -157 -34h-326l110 516h197l-34 -161h105q89 0 139.5 -35t50.5 -121zM348 187q0 28 -17 37.5t-47 9.5h-56l-23 -109h61q39 0 60.5 13t21.5 49z" />
    <glyph glyph-name="afii10095" unicode="&#x44d;" horiz-adv-x="593" 
d="M338 212h-128l19 98h123q-2 87 -71 87q-53 0 -79 -68h-191q30 103 96 150.5t176 47.5q119 0 190 -58t71 -178q0 -140 -84.5 -222.5t-222.5 -82.5q-115 0 -183 53.5t-68 143.5v9h190v-6q0 -31 17.5 -48t49.5 -17q67 0 95 91z" />
    <glyph glyph-name="afii10096" unicode="&#x44e;" horiz-adv-x="888" 
d="M844 299q0 -140 -79.5 -227.5t-211.5 -87.5q-107 0 -173 54t-70 165h-92l-43 -203h-193l110 516h193l-38 -175h83q30 87 101.5 137.5t169.5 50.5q108 0 175.5 -58t67.5 -172zM653 307q0 85 -60 85q-25 0 -44 -19.5t-29 -50t-15 -60t-5 -55.5q0 -85 61 -85q32 0 54.5 34.5
t30 74t7.5 76.5z" />
    <glyph glyph-name="afii10097" unicode="&#x44f;" horiz-adv-x="611" 
d="M593 516l-110 -516h-196l40 187h-27l-147 -187h-239l194 217q-73 37 -73 126q0 26 12.5 54.5t37.5 56t69.5 45t101.5 17.5h337zM371 400h-66q-31 0 -51.5 -15t-20.5 -46q0 -45 67 -45h49z" />
    <glyph glyph-name="afii10071" unicode="&#x451;" horiz-adv-x="630" 
d="M552 152q-52 -167 -275 -167q-121 0 -191 57.5t-70 180.5q0 136 85 221t222 85q122 0 190.5 -62.5t68.5 -173.5q0 -38 -8 -81h-373q-1 -7 -1 -14q0 -86 87 -86q54 0 73 40h192zM217 315h180v11q0 34 -21 54.5t-56 20.5q-37 0 -64.5 -22.5t-38.5 -63.5zM345 712l-29 -137
h-175l29 137h175zM574 712l-29 -137h-176l30 137h175z" />
    <glyph glyph-name="afii10099" unicode="&#x452;" horiz-adv-x="630" 
d="M540 99q-13 -62 -29 -104.5t-44 -84.5t-73.5 -63.5t-107.5 -21.5q-36 0 -89 3l31 145q54 0 75.5 27t39.5 99q6 23 6 45q0 56 -54 56q-43 0 -65 -26.5t-33 -80.5l-20 -93h-197l87 409h-45l25 120h45l39 183h197l-39 -183h196l-25 -120h-196l-27 -128q78 80 167 80
q154 0 154 -144q0 -35 -9 -77z" />
    <glyph glyph-name="afii10100" unicode="&#x453;" horiz-adv-x="500" 
d="M89 516h435l-32 -149h-238l-78 -367h-197zM513 712l-190 -145h-131l112 145h209z" />
    <glyph glyph-name="afii10101" unicode="&#x454;" horiz-adv-x="593" 
d="M345 314l-21 -99h-122v-7q0 -92 71 -92q58 0 83 82h191q-28 -110 -95 -161t-181 -51q-119 0 -190 58t-71 178q0 140 84.5 222.5t222.5 82.5q115 0 183 -53.5t68 -143.5h-190q-1 29 -18.5 45.5t-48.5 16.5q-62 0 -91 -78h125z" />
    <glyph glyph-name="afii10102" unicode="&#x455;" horiz-adv-x="556" 
d="M523 365h-179q1 3 1 8q0 45 -60 45q-25 0 -40.5 -11t-15.5 -29q0 -5 1.5 -9.5t4 -8t5.5 -6.5t8 -5t8.5 -3.5t9.5 -3t9 -2t9.5 -1.5t8.5 -1q35 -6 51 -9.5t45 -11.5t43.5 -18t31.5 -26.5t24 -40t7 -54.5q0 -52 -23.5 -90.5t-64 -59.5t-85 -31t-94.5 -10q-45 0 -85 7.5
t-78 25t-60 52t-22 83.5q0 2 0.5 7t0.5 10h182v-6q0 -56 71 -56q65 0 65 41q0 6 -1.5 11.5t-6 9.5t-8.5 7t-12.5 6t-15 5t-18.5 4.5t-20.5 4t-23.5 4.5t-26 5q-139 27 -139 140q0 51 22.5 88t61 56.5t81.5 28t92 8.5q235 0 235 -149v-15z" />
    <glyph glyph-name="afii10103" unicode="&#x456;" horiz-adv-x="315" 
d="M291 516l-109 -516h-198l110 516h197zM333 712l-29 -138h-198l29 138h198z" />
    <glyph glyph-name="afii10104" unicode="&#x457;" horiz-adv-x="315" 
d="M291 516l-109 -516h-198l110 516h197zM209 712l-29 -137h-175l29 137h175zM438 712l-29 -137h-176l30 137h175z" />
    <glyph glyph-name="afii10105" unicode="&#x458;" horiz-adv-x="315" 
d="M292 516l-100 -472q-14 -68 -29 -105.5t-43 -63.5t-68.5 -34t-109.5 -8q-52 0 -82 3l33 153q14 -1 35 -1q53 0 63 48l103 480h198zM334 712l-30 -138h-199l31 138h198z" />
    <glyph glyph-name="afii10106" unicode="&#x459;" horiz-adv-x="902" 
d="M852 199q0 -51 -23 -95t-62 -70q-53 -34 -157 -34h-306l79 367h-89q-30 -136 -61 -211q-38 -90 -87 -128t-131 -38q-13 0 -34 3.5t-35 6.5l-15 4l30 141q30 -7 43 -7q15 0 26.5 10.5t21 33t15.5 42t14 51.5l3 12q16 60 52 229h475l-37 -172h85q193 0 193 -145zM650 182
q0 42 -64 42h-37l-22 -104h41q39 0 60.5 13t21.5 49z" />
    <glyph glyph-name="afii10107" unicode="&#x45a;" horiz-adv-x="902" 
d="M352 224h-125l-48 -224h-197l110 516h197l-37 -172h125l37 172h197l-37 -172h85q192 0 192 -145q0 -52 -22.5 -96t-61.5 -69q-53 -34 -157 -34h-306zM650 182q0 42 -65 42h-36l-22 -104h41q39 0 60.5 13t21.5 49z" />
    <glyph glyph-name="afii10108" unicode="&#x45b;" horiz-adv-x="630" 
d="M519 0h-197l22 103q5 23 5 41q0 56 -53 56q-43 0 -65.5 -27t-33.5 -80l-20 -93h-197l87 409h-45l26 120h45l39 183h197l-39 -183h196l-26 -120h-196l-27 -128q78 80 167 80q154 0 154 -144q0 -35 -9 -77z" />
    <glyph glyph-name="afii10109" unicode="&#x45c;" horiz-adv-x="611" 
d="M638 516l-235 -216l141 -300h-216l-66 170l-63 -57l-23 -113h-197l110 516h192l-36 -170h3l160 170h230zM553 712l-190 -145h-131l112 145h209z" />
    <glyph glyph-name="afii10110" unicode="&#x45e;" horiz-adv-x="556" 
d="M583 516l-268 -513q-37 -70 -65 -103.5t-72 -50t-117 -16.5q-65 0 -114 4l32 156q21 -3 47 -3q42 0 57.5 10t15.5 37q0 26 -14 89l-77 390h200l19 -158q15 -118 15 -189q20 81 68 192l67 155h206zM490 712q-14 -77 -67 -117t-125 -40q-69 0 -111 34t-42 96q0 17 2 27h91
q-1 -3 -1 -8q0 -47 73 -47q70 0 90 55h90z" />
    <glyph glyph-name="afii10193" unicode="&#x45f;" 
d="M357 0l-29 -137h-180l29 137h-180l109 516h197l-77 -365h145l77 365h197l-109 -516h-179z" />
    <glyph glyph-name="afii10050" unicode="&#x490;" horiz-adv-x="611" 
d="M314 529l-113 -529h-219l152 712h349l34 160h186l-73 -343h-316z" />
    <glyph glyph-name="afii10098" unicode="&#x491;" horiz-adv-x="500" 
d="M75 516h273l28 131h162l-60 -280h-238l-78 -367h-197z" />
    <glyph glyph-name="endash" unicode="&#x2013;" horiz-adv-x="500" 
d="M499 344l-32 -157h-500l33 157h499z" />
    <glyph glyph-name="emdash" unicode="&#x2014;" horiz-adv-x="1000" 
d="M999 344l-32 -157h-1003l33 157h1002z" />
    <glyph glyph-name="quoteleft" unicode="&#x2018;" horiz-adv-x="296" 
d="M330 717l-20 -94q-48 -1 -71.5 -22t-32.5 -69h84l-42 -197h-203l35 170q44 212 239 212h11z" />
    <glyph glyph-name="quoteright" unicode="&#x2019;" horiz-adv-x="296" 
d="M328 711l-35 -170q-44 -212 -239 -212h-11l20 94q48 1 71.5 22t32.5 69h-84l42 197h203z" />
    <glyph glyph-name="quotesinglbase" unicode="&#x201a;" horiz-adv-x="296" 
d="M220 197l-35 -170q-44 -212 -239 -212h-11l20 94q48 1 71.5 22t32.5 69h-84l42 197h203z" />
    <glyph glyph-name="quotedblleft" unicode="&#x201c;" horiz-adv-x="519" 
d="M546 715l-18 -86q-45 -8 -67 -29t-32 -67h78l-42 -198h-179l41 187q21 96 73 142t146 51zM304 715l-18 -86q-45 -8 -67 -29t-32 -67h78l-42 -198h-179l41 187q21 96 73 142t146 51z" />
    <glyph glyph-name="quotedblright" unicode="&#x201d;" horiz-adv-x="519" 
d="M545 703l-41 -187q-21 -96 -73 -142t-146 -51l18 86q45 8 67 29t32 67h-78l42 198h179zM303 703l-41 -187q-21 -96 -73 -142t-146 -51l18 86q45 8 67 29t32 67h-78l42 198h179z" />
    <glyph glyph-name="quotedblbase" unicode="&#x201e;" horiz-adv-x="519" 
d="M438 197l-40 -186q-20 -93 -72.5 -142.5t-147.5 -50.5l19 85q44 8 66.5 30.5t31.5 66.5h-78l42 197h179zM196 197l-40 -186q-20 -93 -72.5 -142.5t-147.5 -50.5l19 85q44 8 66.5 30.5t31.5 66.5h-78l42 197h179z" />
    <glyph glyph-name="dagger" unicode="&#x2020;" horiz-adv-x="667" 
d="M508 712l-41 -188h179l-34 -164h-179l-111 -534h-192l113 534h-176l35 164h175l40 188h191z" />
    <glyph glyph-name="daggerdbl" unicode="&#x2021;" horiz-adv-x="667" 
d="M506 712l-39 -184h179l-34 -160h-178l-43 -197h180l-34 -159h-179l-40 -185h-189l39 185h-176l34 159h176l41 197h-175l33 160h177l40 184h188z" />
    <glyph glyph-name="bullet" unicode="&#x2022;" horiz-adv-x="500" 
d="M250 536q75 1 128 -52t53 -128t-52.5 -128t-128.5 -53q-75 0 -128 53t-53 128t53 127.5t128 52.5z" />
    <glyph glyph-name="ellipsis" unicode="&#x2026;" horiz-adv-x="1000" 
d="M238 198l-41 -198h-206l42 198h205zM570 198l-41 -198h-206l42 198h205zM903 198l-41 -198h-206l42 198h205z" />
    <glyph glyph-name="perthousand" unicode="&#x2030;" horiz-adv-x="1167" 
d="M699 708l-482 -728h-115l482 728h115zM369 573q0 -89 -43.5 -154.5t-127.5 -65.5q-62 0 -97 35t-35 98q0 85 44 149.5t125 64.5q64 0 99 -32t35 -95zM235 626q-36 0 -56 -92q-9 -38 -9 -62q0 -43 30 -43q37 0 56 89q10 45 10 72q0 36 -31 36zM744 210q0 -89 -43.5 -154.5
t-127.5 -65.5q-62 0 -97 35t-35 98q0 85 44 149.5t125 64.5q64 0 99 -32t35 -95zM610 263q-36 0 -56 -92q-9 -38 -9 -62q0 -43 30 -43q37 0 56 89q10 45 10 72q0 36 -31 36zM1096 210q0 -89 -43.5 -154.5t-127.5 -65.5q-62 0 -97 35t-35 98q0 85 44 149.5t125 64.5
q64 0 99 -32t35 -95zM962 263q-36 0 -56 -92q-9 -38 -9 -62q0 -43 30 -43q37 0 56 89q10 45 10 72q0 36 -31 36z" />
    <glyph glyph-name="guilsinglleft" unicode="&#x2039;" horiz-adv-x="241" 
d="M229 480l-32 -155l-99 -69l69 -75l-29 -135l-131 141l34 166z" />
    <glyph glyph-name="guilsinglright" unicode="&#x203a;" horiz-adv-x="241" 
d="M70 481l131 -142l-34 -164l-188 -128l31 155l100 69l-69 75z" />
    <glyph glyph-name="afii61352" unicode="&#x2116;" horiz-adv-x="1167" 
d="M874 285q0 -55 41 -55q33 0 48.5 30t15.5 66q0 25 -11 40t-30 15q-33 0 -48.5 -30t-15.5 -66zM948 469q76 0 120 -40.5t44 -103.5q0 -88 -58.5 -135t-150.5 -47q-72 0 -117 39t-45 104q0 82 59 132.5t148 50.5zM1035 0h-348l24 113h348zM341 693l142 -385l25 161l48 224
h214l-148 -693h-209l-145 372l-25 -162l-45 -210h-214l148 693h209z" />
    <glyph glyph-name="trademark" unicode="&#x2122;" horiz-adv-x="1000" 
d="M208 354v270h-97v88h311v-88h-98v-270h-116zM474 354v358h161l66 -207l67 207h161v-358h-104v269l-87 -269h-73l-87 269v-269h-104z" />
    <glyph glyph-name="Delta" unicode="&#x2206;" horiz-adv-x="714" 
d="M492 712l143 -712h-691l384 712h164zM175 140h280l-79 405z" />
    <glyph glyph-name="radical" unicode="&#x221a;" horiz-adv-x="600" 
d="M612 786l-213 -1000h-172l-134 293l-57 -26l-53 114l207 86l100 -241l147 774h175z" />
    <glyph glyph-name="infinity" unicode="&#x221e;" horiz-adv-x="873" 
d="M608 51q-104 0 -190 106q-43 -51 -85.5 -78t-101.5 -27q-94 0 -149.5 59t-55.5 151t54 149.5t146 57.5q62 0 105.5 -29t86.5 -83q43 55 85 83.5t106 28.5q93 0 146.5 -58t53.5 -148q0 -92 -54 -152t-147 -60zM604 328q-47 0 -102 -70q53 -66 105 -66q29 0 46 19.5
t17 49.5t-18 48.5t-48 18.5zM227 328q-28 0 -45.5 -20t-17.5 -48q0 -30 17.5 -48.5t47.5 -18.5q51 0 103 65q-55 70 -105 70z" />
    <glyph glyph-name="approxequal" unicode="&#x2248;" horiz-adv-x="600" 
d="M79 273h-96q28 226 167 226q49 0 112 -24q118 -46 149 -46q29 0 46 14.5t28 55.5h97q-3 -35 -14 -72t-30.5 -73t-52 -58.5t-72.5 -22.5q-48 0 -141 35q-8 3 -25.5 10t-26 10t-22 7.5t-25 6t-22.5 1.5q-28 0 -45 -15.5t-27 -54.5zM79 28h-96q28 226 167 226q49 0 112 -24
q118 -46 149 -46q29 0 46 14.5t28 55.5h97q-3 -35 -14 -72t-30.5 -73t-52 -58.5t-72.5 -22.5q-48 0 -141 35q-8 3 -25.5 10t-26 10t-22 7.5t-25 6t-22.5 1.5q-28 0 -45 -15.5t-27 -54.5z" />
    <glyph glyph-name="notequal" unicode="&#x2260;" horiz-adv-x="600" 
d="M12 234h186l33 67h-219v153h295l80 161l128 -63l-49 -98h105v-153h-181l-33 -67h214v-152h-289l-86 -173l-128 63l55 110h-111v152z" />
    <glyph glyph-name="lessequal" unicode="&#x2264;" horiz-adv-x="600" 
d="M10 288v145l540 155v-160l-317 -67l317 -78v-160zM10 97h540v-162h-540v162z" />
    <glyph glyph-name="greaterequal" unicode="&#x2265;" horiz-adv-x="600" 
d="M563 288l-540 -165v160l317 78l-317 67v160l540 -155v-145zM563 -65h-540v162h540v-162z" />
    <glyph glyph-name="hyphenminus" unicode="&#xe000;" horiz-adv-x="407" 
d="M360 349l-35 -165h-312l35 165h312z" />
    <glyph glyph-name="nbspace" unicode="&#xe001;" horiz-adv-x="334" 
 />
    </font>
</defs>
</svg>
